# xmcd CD database file
#
# Track frame offsets:
#	150
#	17038
#	31195
#	43218
#	48873
#	60980
#	77748
#	92698
#	112623
#	129413
#	135213
#
# Disc length: 2017 seconds
#
# Revision: 0
# Processed by: cddbd v1.5.2PL0 Copyright (c) Steve Scherf et al.
# Submitted via: CDex 1.70beta3
#
DISCID=7707df0b
DTITLE=高柳昌行 - A JAZZY PROFILE OF JOJO
DYEAR=1970
DGENRE=Jazz
TTITLE0=THE THINGS WE DID LAST SUMMER
TTITLE1=WHO CAN I TURN TO
TTITLE2=THAT OLD FEELING
TTITLE3=PRELUDE IN CHORDS
TTITLE4=ROCK-A-BYE YOUR BABY WITH A DIXE MELODY
TTITLE5=THERE'LL NEVER BE ANOTHER YOU
TTITLE6=SAY IT (OVER AND OVER AGAIN)
TTITLE7=MY FOOLISH HEART
TTITLE8=MORITAT
TTITLE9=PRELUDE NO.4,OP.16
TTITLE10=EMBRACEABLE YOU
EXTD=YEAR: 1970
EXTT0=
EXTT1=
EXTT2=
EXTT3=
EXTT4=
EXTT5=
EXTT6=
EXTT7=
EXTT8=
EXTT9=
EXTT10=
PLAYORDER=
